<svg width="23" height="22" viewBox="0 0 23 22" fill="none" xmlns="http://www.w3.org/2000/svg">
<circle cx="11.4629" cy="11" r="11" fill="black"/>
<path d="M15.4628 10.8248C15.4769 9.11168 14.0706 7.54123 12.3279 7.32406C12.2933 7.3198 12.2555 7.31331 12.2156 7.30644C12.1293 7.29161 12.0401 7.27637 11.95 7.27637C11.5929 7.27637 11.4974 7.53666 11.4723 7.6919C11.4478 7.84285 11.4712 7.9696 11.5415 8.0688C11.6597 8.23567 11.8679 8.26529 12.035 8.28902C12.084 8.29604 12.1302 8.30257 12.1689 8.31159C13.7346 8.67456 14.2618 9.24523 14.5194 10.8558C14.5257 10.8952 14.5286 10.9437 14.5316 10.9951C14.5428 11.1876 14.5663 11.5882 14.9813 11.5882H14.9813C15.0159 11.5882 15.053 11.5851 15.0917 11.579C15.4782 11.518 15.4661 11.1519 15.4603 10.976C15.4586 10.9264 15.4571 10.8796 15.4611 10.8484C15.4622 10.8406 15.4627 10.8327 15.4628 10.8248Z" fill="white"/>
<path d="M11.9598 7.04625C12.0003 7.04929 12.0387 7.05219 12.0706 7.05728C14.317 7.41615 15.3501 8.52178 15.6363 10.8736C15.6412 10.9136 15.642 10.9623 15.6428 11.014C15.6456 11.1977 15.6515 11.58 16.0467 11.5879L16.0589 11.588C16.1829 11.588 16.2814 11.5492 16.352 11.4725C16.475 11.3389 16.4664 11.1403 16.4595 10.9807C16.4578 10.9416 16.4562 10.9047 16.4566 10.8724C16.4851 8.46711 14.4809 6.28599 12.1676 6.20488C12.158 6.20455 12.1488 6.20508 12.1396 6.20643C12.135 6.20712 12.1266 6.20798 12.1122 6.20798C12.0891 6.20798 12.0607 6.2059 12.0306 6.20379C11.9942 6.20121 11.953 6.19824 11.9112 6.19824C11.5428 6.19824 11.4727 6.47026 11.4638 6.63241C11.4431 7.00716 11.7921 7.03354 11.9598 7.04625Z" fill="white"/>
<path d="M15.8056 13.8671C15.7562 13.8267 15.7051 13.7848 15.6573 13.7435C15.4035 13.5247 15.1335 13.323 14.8724 13.128C14.8182 13.0875 14.764 13.047 14.71 13.0064C14.3756 12.7547 14.0749 12.6324 13.7908 12.6324C13.4082 12.6324 13.0746 12.8589 12.7992 13.3056C12.6772 13.5037 12.5292 13.5999 12.3468 13.5999C12.239 13.5999 12.1165 13.567 11.9827 13.5019C10.9031 12.9773 10.1322 12.1731 9.69138 11.1115C9.47828 10.5984 9.54736 10.263 9.9224 9.99005C10.1354 9.83518 10.5318 9.54685 10.5037 8.99472C10.4719 8.36772 9.18074 6.48116 8.63673 6.26689C8.4064 6.17614 8.1644 6.17529 7.91615 6.26478C7.29076 6.49004 6.84198 6.88565 6.61819 7.40875C6.40193 7.9142 6.4117 8.50769 6.64643 9.12507C7.32502 10.9101 8.27909 12.4663 9.48222 13.7506C10.6599 15.0077 12.1073 16.0375 13.7843 16.8112C13.9354 16.8809 14.094 16.9189 14.2098 16.9467C14.2492 16.9562 14.2833 16.9643 14.3081 16.9716C14.3218 16.9755 14.3358 16.9777 14.3499 16.9778L14.3632 16.9779C14.3632 16.9779 14.3632 16.9779 14.3633 16.9779C15.152 16.9779 16.0991 16.2057 16.3899 15.3252C16.6447 14.5543 16.1795 14.1733 15.8056 13.8671Z" fill="white"/>
<path d="M11.9736 9.4329C11.8472 9.43625 11.5841 9.44309 11.4918 9.72369C11.4486 9.85483 11.4538 9.96868 11.5072 10.0621C11.5856 10.1992 11.7357 10.2412 11.8722 10.2642C12.3675 10.3474 12.6218 10.6343 12.6727 11.1668C12.6963 11.4151 12.856 11.5885 13.0609 11.5885H13.061C13.0761 11.5885 13.0916 11.5876 13.107 11.5856C13.3535 11.5549 13.473 11.3652 13.4622 11.0218C13.4662 10.6634 13.2871 10.2566 12.9826 9.93255C12.677 9.60749 12.3086 9.42442 11.9736 9.4329Z" fill="white"/>
</svg>
