<svg width="15" height="14" viewBox="0 0 15 14" fill="none" xmlns="http://www.w3.org/2000/svg">
<path d="M11.7715 5.38462H10.6949C10.6945 4.95632 10.5242 4.54569 10.2215 4.24284C9.91873 3.93999 9.50823 3.76966 9.08009 3.76923V2.69231C9.79362 2.69316 10.4777 2.97709 10.9822 3.48181C11.4868 3.98653 11.7706 4.67083 11.7715 5.38462Z" fill="black"/>
<path d="M13.9246 5.38462H12.848C12.8469 4.3853 12.4495 3.42725 11.7432 2.72063C11.0368 2.01401 10.0791 1.61653 9.08009 1.61539V0.538462C10.3645 0.539887 11.5959 1.05092 12.5041 1.95944C13.4123 2.86796 13.9232 4.09977 13.9246 5.38462Z" fill="black"/>
<path d="M12.848 14H12.7565C2.17936 13.3915 0.677569 4.46385 0.467641 1.73923C0.434831 1.3121 0.572973 0.889414 0.851682 0.56416C1.13039 0.238905 1.52684 0.0377163 1.95383 0.00484669C1.99653 0.00161592 2.03941 5.04857e-07 2.08247 5.04857e-07H4.9192C5.13481 -0.000208291 5.34552 0.0643519 5.52402 0.185318C5.70253 0.306285 5.84062 0.478084 5.92039 0.678462L6.73858 2.69231C6.81735 2.88806 6.8369 3.10266 6.7948 3.30943C6.75269 3.51621 6.65078 3.70605 6.50173 3.85539L5.3552 5.01308C5.53357 6.03148 6.02072 6.97038 6.7506 7.70243C7.48048 8.43448 8.41776 8.92428 9.43535 9.10538L10.6034 7.94769C10.7549 7.80024 10.9465 7.70067 11.1542 7.66141C11.3619 7.62215 11.5766 7.64494 11.7715 7.72692L13.8008 8.54C13.9981 8.62232 14.1664 8.76153 14.2843 8.9399C14.4022 9.11827 14.4644 9.32771 14.4629 9.54154V12.3846C14.4629 12.813 14.2927 13.2239 13.9899 13.5269C13.6871 13.8298 13.2763 14 12.848 14ZM2.08247 1.07692C2.01179 1.07671 1.94175 1.09043 1.87636 1.11729C1.81097 1.14416 1.75151 1.18364 1.70138 1.23349C1.65125 1.28334 1.61142 1.34258 1.58417 1.40783C1.55693 1.47308 1.54279 1.54306 1.54258 1.61377C1.54258 1.62885 1.54312 1.64374 1.5442 1.65846C1.7918 4.84615 3.37972 12.3846 12.8157 12.9231C12.9582 12.9316 13.0982 12.8832 13.205 12.7885C13.3118 12.6938 13.3766 12.5605 13.3852 12.418L13.3863 12.3846V9.54154L11.357 8.72846L9.81214 10.2631L9.55377 10.2308C4.87075 9.64385 4.23559 4.95923 4.23559 4.91077L4.20329 4.65231L5.732 3.10692L4.92458 1.07692H2.08247Z" fill="black"/>
</svg>
