<svg width="22" height="22" viewBox="0 0 22 22" fill="none" xmlns="http://www.w3.org/2000/svg">
<circle cx="11" cy="11" r="11" fill="white"/>
<path d="M14.9999 10.8248C15.014 9.11168 13.6077 7.54123 11.865 7.32406C11.8304 7.3198 11.7926 7.31331 11.7527 7.30644C11.6664 7.29161 11.5772 7.27637 11.4872 7.27637C11.13 7.27637 11.0345 7.53666 11.0094 7.6919C10.985 7.84285 11.0083 7.9696 11.0786 8.0688C11.1968 8.23567 11.405 8.26529 11.5721 8.28902C11.6211 8.29604 11.6673 8.30257 11.706 8.31159C13.2717 8.67456 13.7989 9.24523 14.0566 10.8558C14.0628 10.8952 14.0657 10.9437 14.0687 10.9951C14.0799 11.1876 14.1034 11.5882 14.5184 11.5882H14.5185C14.553 11.5882 14.5901 11.5851 14.6288 11.579C15.0153 11.518 15.0032 11.1519 14.9974 10.976C14.9957 10.9264 14.9942 10.8796 14.9982 10.8484C14.9993 10.8406 14.9999 10.8327 14.9999 10.8248Z" fill="black"/>
<path d="M11.4969 7.04625C11.5374 7.04929 11.5758 7.05219 11.6077 7.05728C13.8541 7.41615 14.8872 8.52178 15.1735 10.8736C15.1783 10.9136 15.1791 10.9623 15.1799 11.014C15.1827 11.1977 15.1886 11.58 15.5838 11.5879L15.596 11.588C15.72 11.588 15.8185 11.5492 15.8891 11.4725C16.0121 11.3389 16.0035 11.1403 15.9966 10.9807C15.9949 10.9416 15.9933 10.9047 15.9937 10.8724C16.0222 8.46711 14.018 6.28599 11.7047 6.20488C11.6951 6.20455 11.6859 6.20508 11.6767 6.20643C11.6721 6.20712 11.6637 6.20798 11.6493 6.20798C11.6262 6.20798 11.5978 6.2059 11.5677 6.20379C11.5313 6.20121 11.4901 6.19824 11.4483 6.19824C11.0799 6.19824 11.0098 6.47026 11.0009 6.63241C10.9802 7.00716 11.3292 7.03354 11.4969 7.04625Z" fill="black"/>
<path d="M15.3427 13.8671C15.2933 13.8267 15.2422 13.7848 15.1944 13.7435C14.9406 13.5247 14.6706 13.323 14.4095 13.128C14.3553 13.0875 14.3011 13.047 14.2472 13.0064C13.9127 12.7547 13.612 12.6324 13.3279 12.6324C12.9453 12.6324 12.6117 12.8589 12.3363 13.3056C12.2143 13.5037 12.0663 13.5999 11.884 13.5999C11.7761 13.5999 11.6536 13.567 11.5198 13.5019C10.4402 12.9773 9.66932 12.1731 9.22849 11.1115C9.01539 10.5984 9.08447 10.263 9.45951 9.99005C9.67247 9.83518 10.0689 9.54685 10.0408 8.99472C10.009 8.36772 8.71785 6.48116 8.17384 6.26689C7.94351 6.17614 7.70151 6.17529 7.45326 6.26478C6.82787 6.49004 6.37908 6.88565 6.1553 7.40875C5.93904 7.9142 5.94881 8.50769 6.18354 9.12507C6.86213 10.9101 7.8162 12.4663 9.01933 13.7506C10.197 15.0077 11.6444 16.0375 13.3214 16.8112C13.4726 16.8809 13.6311 16.9189 13.7469 16.9467C13.7863 16.9562 13.8204 16.9643 13.8452 16.9716C13.8589 16.9755 13.8729 16.9777 13.887 16.9778L13.9003 16.9779C13.9003 16.9779 13.9003 16.9779 13.9004 16.9779C14.6891 16.9779 15.6362 16.2057 15.927 15.3252C16.1818 14.5543 15.7166 14.1733 15.3427 13.8671Z" fill="black"/>
<path d="M11.5107 9.4329C11.3843 9.43625 11.1212 9.44309 11.0289 9.72369C10.9858 9.85483 10.9909 9.96868 11.0443 10.0621C11.1227 10.1992 11.2728 10.2412 11.4094 10.2642C11.9046 10.3474 12.1589 10.6343 12.2098 11.1668C12.2334 11.4151 12.3931 11.5885 12.598 11.5885H12.5981C12.6132 11.5885 12.6287 11.5876 12.6441 11.5856C12.8906 11.5549 13.0101 11.3652 12.9993 11.0218C13.0033 10.6634 12.8242 10.2566 12.5197 9.93255C12.2141 9.60749 11.8457 9.42442 11.5107 9.4329Z" fill="black"/>
</svg>
